<?xml version="1.0" encoding="iso-8859-1"?>
<!-- Generator: Adobe Illustrator 19.0.0, SVG Export Plug-In . SVG Version: 6.00 Build 0)  -->
<svg version="1.1" id="Layer_1" xmlns="http://www.w3.org/2000/svg" xmlns:xlink="http://www.w3.org/1999/xlink" x="0px" y="0px"
	 viewBox="0 0 512 512" style="enable-background:new 0 0 512 512;" xml:space="preserve">
<path style="fill:#EFC27B;" d="M143.466,112.532c0,62.052,50.483,112.532,112.534,112.532s112.534-50.481,112.534-112.532
	S318.052,0,256,0S143.466,50.481,143.466,112.532z"/>
<path style="fill:#A4E276;" d="M76.665,512h358.669c14.856,0,26.9-12.044,26.9-26.9c0-113.718-92.517-206.235-206.235-206.235
	S49.765,371.382,49.765,485.1C49.765,499.956,61.809,512,76.665,512z"/>
<path style="fill:#ECB45C;" d="M143.466,112.532c0,62.052,50.483,112.532,112.534,112.532V0
	C193.948,0,143.466,50.481,143.466,112.532z"/>
<path style="fill:#64C37D;" d="M49.765,485.1c0,14.856,12.044,26.9,26.9,26.9H256V278.865
	C142.282,278.865,49.765,371.382,49.765,485.1z"/>
<g>
</g>
<g>
</g>
<g>
</g>
<g>
</g>
<g>
</g>
<g>
</g>
<g>
</g>
<g>
</g>
<g>
</g>
<g>
</g>
<g>
</g>
<g>
</g>
<g>
</g>
<g>
</g>
<g>
</g>
</svg>
